<svg xmlns="http://www.w3.org/2000/svg" xmlns:xlink="http://www.w3.org/1999/xlink" width="72" height="72" viewBox="0 0 72 72" fill="none"><defs><rect id="path_0" x="0" y="0" width="72" height="72" /><linearGradient id="linear_0" x1="-5.551115123125783e-15%" y1="50%" x2="100%" y2="0%" gradientUnits="objectBoundingBox"><stop offset="0" stop-color="#034BFC" stop-opacity="1" /><stop offset="1" stop-color="#034BFC" stop-opacity="0.01" /></linearGradient><linearGradient id="linear_1" x1="-5.551115123125783e-15%" y1="50%" x2="100%" y2="0%" gradientUnits="objectBoundingBox"><stop offset="0" stop-color="#034BFC" stop-opacity="1" /><stop offset="1" stop-color="#034BFC" stop-opacity="0.01" /></linearGradient><linearGradient id="linear_2" x1="-18.415%" y1="50%" x2="100%" y2="50%" gradientUnits="objectBoundingBox"><stop offset="0" stop-color="#034BFC" stop-opacity="0.01" /><stop offset="1" stop-color="#034BFC" stop-opacity="1" /></linearGradient><linearGradient id="linear_3" x1="-18.415%" y1="50%" x2="100%" y2="50%" gradientUnits="objectBoundingBox"><stop offset="0" stop-color="#034BFC" stop-opacity="0.01" /><stop offset="1" stop-color="#034BFC" stop-opacity="1" /></linearGradient><linearGradient id="linear_4" x1="-23.558%" y1="50%" x2="100%" y2="50%" gradientUnits="objectBoundingBox"><stop offset="0" stop-color="#034BFC" stop-opacity="0.01" /><stop offset="1" stop-color="#034BFC" stop-opacity="1" /></linearGradient><linearGradient id="linear_5" x1="-23.558%" y1="50%" x2="100%" y2="50%" gradientUnits="objectBoundingBox"><stop offset="0" stop-color="#034BFC" stop-opacity="0.01" /><stop offset="1" stop-color="#034BFC" stop-opacity="1" /></linearGradient></defs><g opacity="1" transform="translate(0 0)  rotate(0 36 36)"><mask id="bg-mask-0" fill="white"><use xlink:href="#path_0"></use></mask><g mask="url(#bg-mask-0)" ><g opacity="1" transform="translate(7 11.999999999999993)  rotate(0 28.999999999999996 24.45154901960784)"><path id="直线 1"  fill="url(#linear_0)" transform="translate(0 48.901960784313715)  rotate(0 28.999999999999996 0.0090625)" opacity="1" d="M63.7002 -0.00178133Q63.7002 -0.141714 63.6933 -0.281477Q63.6864 -0.421239 63.6726 -0.560494Q63.6589 -0.699749 63.6383 -0.838161Q63.6177 -0.976573 63.5904 -1.11381Q63.563 -1.25104 63.529 -1.38677Q63.4949 -1.5225 63.4543 -1.6564Q63.4136 -1.79029 63.3664 -1.92203Q63.3192 -2.05377 63.2656 -2.18303Q63.2121 -2.3123 63.1522 -2.43878Q63.0923 -2.56526 63.0263 -2.68864Q62.9603 -2.81203 62.8883 -2.93204Q62.8164 -3.05204 62.7386 -3.16836Q62.6608 -3.28469 62.5774 -3.39706Q62.494 -3.50943 62.4052 -3.61757Q62.3164 -3.72571 62.2224 -3.82937Q62.1284 -3.93302 62.0294 -4.03194Q61.9304 -4.13085 61.8267 -4.22479Q61.723 -4.31874 61.6148 -4.40747Q61.5066 -4.49621 61.3942 -4.57954Q61.2818 -4.66286 61.1654 -4.74056Q61.049 -4.81827 60.929 -4.89017Q60.8089 -4.96208 60.6855 -5.028Q60.5621 -5.09393 60.4356 -5.15372Q60.309 -5.21351 60.1797 -5.26702Q60.0504 -5.32053 59.9187 -5.36763Q59.7869 -5.41473 59.653 -5.45531Q59.5191 -5.49588 59.3833 -5.52984Q59.2476 -5.5638 59.1103 -5.59106Q58.9731 -5.61831 58.8346 -5.6388Q58.6962 -5.65929 58.5569 -5.67297Q58.4177 -5.68664 58.2779 -5.69346Q58.1381 -5.70028 57.9982 -5.70024L58 0L57.998 -5.70024L-0.00178074 -5.68024L-0.00178132 -5.68211Q-0.141714 -5.68207 -0.281477 -5.67516Q-0.421239 -5.66825 -0.560494 -5.65449Q-0.699749 -5.64073 -0.838161 -5.62016Q-0.976573 -5.59958 -1.11381 -5.57224Q-1.25104 -5.5449 -1.38677 -5.51085Q-1.5225 -5.47681 -1.6564 -5.43615Q-1.79029 -5.39548 -1.92203 -5.3483Q-2.05377 -5.30112 -2.18303 -5.24753Q-2.3123 -5.19394 -2.43878 -5.13407Q-2.56526 -5.0742 -2.68864 -5.0082Q-2.81203 -4.94219 -2.93204 -4.87022Q-3.05204 -4.79824 -3.16836 -4.72046Q-3.28469 -4.64268 -3.39706 -4.55929Q-3.50943 -4.4759 -3.61757 -4.38709Q-3.72571 -4.29828 -3.82937 -4.20428Q-3.93302 -4.11027 -4.03194 -4.01129Q-4.13085 -3.91231 -4.22479 -3.8086Q-4.31874 -3.70489 -4.40747 -3.59669Q-4.49621 -3.48849 -4.57954 -3.37607Q-4.66286 -3.26365 -4.74056 -3.14728Q-4.81827 -3.0309 -4.89017 -2.91086Q-4.96208 -2.79081 -5.028 -2.66738Q-5.09393 -2.54395 -5.15372 -2.41743Q-5.21351 -2.29091 -5.26702 -2.16162Q-5.32053 -2.03232 -5.36763 -1.90055Q-5.41473 -1.76878 -5.45531 -1.63486Q-5.49588 -1.50094 -5.52984 -1.36519Q-5.5638 -1.22944 -5.59106 -1.09219Q-5.61831 -0.954937 -5.6388 -0.816512Q-5.65929 -0.678087 -5.67297 -0.538823Q-5.68664 -0.39956 -5.69346 -0.259793Q-5.70028 -0.120027 -5.70024 0.0199064Q-5.7002 0.159839 -5.69329 0.299602Q-5.68638 0.439364 -5.67262 0.578619Q-5.65886 0.717874 -5.63828 0.856286Q-5.61771 0.994698 -5.59036 1.13193Q-5.56302 1.26917 -5.52898 1.4049Q-5.49493 1.54063 -5.45427 1.67452Q-5.41361 1.80842 -5.36643 1.94016Q-5.31924 2.07189 -5.26565 2.20116Q-5.21206 2.33042 -5.15219 2.4569Q-5.09233 2.58338 -5.02632 2.70677Q-4.96032 2.83016 -4.88834 2.95016Q-4.81636 3.07016 -4.73859 3.18649Q-4.66081 3.30281 -4.57741 3.41518Q-4.49402 3.52755 -4.40521 3.6357Q-4.31641 3.74384 -4.2224 3.84749Q-4.1284 3.95115 -4.02942 4.05006Q-3.93044 4.14898 -3.82673 4.24292Q-3.72301 4.33686 -3.61482 4.4256Q-3.50662 4.51434 -3.3942 4.59766Q-3.28178 4.68098 -3.1654 4.75869Q-3.04903 4.8364 -2.92898 4.9083Q-2.80893 4.9802 -2.6855 5.04613Q-2.56207 5.11205 -2.43556 5.17184Q-2.30904 5.23163 -2.17974 5.28514Q-2.05044 5.33865 -1.91868 5.38575Q-1.78691 5.43285 -1.65299 5.47343Q-1.51907 5.51401 -1.38332 5.54797Q-1.24757 5.58193 -1.11031 5.60918Q-0.973061 5.63644 -0.834637 5.65693Q-0.696212 5.67742 -0.556948 5.69109Q-0.417685 5.70476 -0.277918 5.71159Q-0.138152 5.71841 0.00178132 5.71836L6.24975e-06 0.0381243L0.0019656 5.72024L58.0018 5.70024L58.002 5.70024Q58.282 5.70014 58.5607 5.6726Q58.8393 5.64506 59.1139 5.59034Q59.3886 5.53561 59.6565 5.45424Q59.9244 5.37286 60.1831 5.26562Q60.4418 5.15837 60.6887 5.02629Q60.9356 4.89421 61.1684 4.73856Q61.4012 4.58291 61.6176 4.4052Q61.834 4.22749 62.0319 4.02942Q62.2299 3.83134 62.4075 3.61482Q62.5851 3.39829 62.7406 3.1654Q62.8961 2.93251 63.028 2.6855Q63.1599 2.43849 63.267 2.17974Q63.3741 1.92099 63.4553 1.65299Q63.5365 1.38499 63.5911 1.11031Q63.6456 0.835643 63.673 0.556948Q63.7003 0.278253 63.7002 -0.00178133Z " /><path id="直线 1" style="stroke:url(#linear_1); stroke-width:11.400479999999998; stroke-opacity:100; stroke-dasharray:0 0" transform="translate(0 48.901960784313715)  rotate(0 28.999999999999996 0.0090625)" d="" /><path id="直线 1"  fill="url(#linear_2)" transform="translate(29.568627450980383 0)  rotate(0 14.215686274509803 24.450980392156858)" opacity="1" d="M-4.92791 2.86504Q-4.99824 2.74407 -5.06255 2.61979Q-5.12687 2.49551 -5.185 2.36823Q-5.24314 2.24094 -5.29496 2.11096Q-5.34678 1.98097 -5.39216 1.8486Q-5.43754 1.71623 -5.47637 1.5818Q-5.5152 1.44736 -5.54739 1.31118Q-5.57958 1.175 -5.60505 1.0374Q-5.63051 0.899807 -5.6492 0.761128Q-5.66788 0.622448 -5.67974 0.483018Q-5.6916 0.343589 -5.6966 0.203746Q-5.7016 0.0639024 -5.69973 -0.0760179Q-5.69787 -0.215938 -5.68914 -0.355598Q-5.68041 -0.495259 -5.66484 -0.634322Q-5.64926 -0.773386 -5.62689 -0.911518Q-5.60451 -1.04965 -5.57538 -1.18652Q-5.54626 -1.32339 -5.51045 -1.45866Q-5.47464 -1.59393 -5.43224 -1.72729Q-5.38984 -1.86064 -5.34094 -1.99175Q-5.29205 -2.12286 -5.23678 -2.25142Q-5.18151 -2.37998 -5.12 -2.50566Q-5.05849 -2.63135 -4.99088 -2.75387Q-4.92328 -2.87639 -4.84975 -2.99545Q-4.77621 -3.1145 -4.69693 -3.2298Q-4.61764 -3.34511 -4.53279 -3.45638Q-4.44794 -3.56765 -4.35773 -3.67463Q-4.26753 -3.7816 -4.17218 -3.88403Q-4.07683 -3.98645 -3.97657 -4.08407Q-3.87632 -4.18168 -3.77139 -4.27427Q-3.66646 -4.36685 -3.55712 -4.45417Q-3.44778 -4.54149 -3.33428 -4.62335Q-3.22078 -4.7052 -3.10341 -4.78138Q-2.98603 -4.85757 -2.86506 -4.9279Q-2.74408 -4.99823 -2.61981 -5.06254Q-2.49553 -5.12686 -2.36824 -5.18499Q-2.24096 -5.24313 -2.11097 -5.29495Q-1.98099 -5.34677 -1.84862 -5.39215Q-1.71625 -5.43754 -1.58181 -5.47637Q-1.44738 -5.5152 -1.3112 -5.54739Q-1.17501 -5.57957 -1.03742 -5.60504Q-0.899823 -5.63051 -0.761143 -5.64919Q-0.622463 -5.66788 -0.483033 -5.67974Q-0.343603 -5.69159 -0.20376 -5.6966Q-0.0639161 -5.7016 0.0760044 -5.69973Q0.215925 -5.69787 0.355586 -5.68914Q0.495246 -5.68041 0.63431 -5.66484Q0.773374 -5.64927 0.911506 -5.62689Q1.04964 -5.60451 1.18651 -5.57539Q1.32337 -5.54626 1.45865 -5.51045Q1.59392 -5.47464 1.72728 -5.43224Q1.86063 -5.38984 1.99174 -5.34094Q2.12286 -5.29205 2.25141 -5.23678Q2.37997 -5.18151 2.50566 -5.12Q2.63135 -5.05849 2.75387 -4.99089Q2.87638 -4.92328 2.99544 -4.84975Q3.11449 -4.77622 3.2298 -4.69693Q3.3451 -4.61764 3.45637 -4.53279Q3.56765 -4.44794 3.67462 -4.35774Q3.7816 -4.26753 3.88402 -4.17218Q3.98644 -4.07683 4.08406 -3.97658Q4.18168 -3.87632 4.27426 -3.77139Q4.36685 -3.66646 4.45417 -3.55712Q4.54149 -3.44778 4.62334 -3.33428Q4.7052 -3.22078 4.78138 -3.10341Q4.85757 -2.98603 4.9279 -2.86506L0 0L4.92791 -2.86504L33.3579 46.035L23.5021 51.765L-4.9279 2.86506L-4.92791 2.86504ZM33.9418 50.3606Q34.0135 50.0899 34.0583 49.8135Q34.103 49.537 34.1205 49.2575Q34.138 48.9781 34.128 48.6982Q34.118 48.4184 34.0806 48.1408Q34.0432 47.8633 33.9788 47.5908Q33.9143 47.3182 33.8235 47.0533Q33.7327 46.7884 33.6164 46.5337Q33.5 46.279 33.3593 46.0369L23.5035 51.767Q23.5738 51.888 23.65 52.0054Q23.7262 52.1227 23.808 52.2362Q23.8899 52.3497 23.9772 52.4591Q24.0645 52.5684 24.1571 52.6734Q24.2497 52.7783 24.3473 52.8785Q24.4449 52.9788 24.5473 53.0741Q24.6498 53.1695 24.7567 53.2597Q24.8637 53.3499 24.975 53.4347Q25.0863 53.5196 25.2016 53.5989Q25.3169 53.6782 25.4359 53.7517Q25.555 53.8252 25.6775 53.8928Q25.8 53.9605 25.9257 54.022Q26.0514 54.0835 26.18 54.1387Q26.3085 54.194 26.4396 54.2429Q26.5707 54.2918 26.7041 54.3342Q26.8374 54.3766 26.9727 54.4124Q27.108 54.4482 27.2449 54.4773Q27.3817 54.5065 27.5199 54.5289Q27.658 54.5512 27.7971 54.5668Q27.9361 54.5824 28.0758 54.5911Q28.2154 54.5998 28.3554 54.6017Q28.4953 54.6036 28.6351 54.5986Q28.775 54.5936 28.9144 54.5817Q29.0538 54.5698 29.1925 54.5512Q29.3312 54.5325 29.4688 54.507Q29.6064 54.4815 29.7426 54.4493Q29.8787 54.4172 30.0132 54.3783Q30.1476 54.3395 30.28 54.2941Q30.4124 54.2487 30.5423 54.1969Q30.6723 54.1451 30.7996 54.087Q30.9269 54.0288 31.0512 53.9645Q31.1755 53.9002 31.2964 53.8299Q31.5385 53.6891 31.7656 53.5253Q31.9928 53.3615 32.2028 53.1762Q32.4127 52.9909 32.6035 52.786Q32.7944 52.581 32.9642 52.3583Q33.134 52.1357 33.2811 51.8974Q33.4283 51.6591 33.5514 51.4076Q33.6745 51.1561 33.7723 50.8937Q33.8702 50.6313 33.9418 50.3606Z " /><path id="直线 1" style="stroke:url(#linear_3); stroke-width:11.400479999999998; stroke-opacity:100; stroke-dasharray:0 0" transform="translate(29.568627450980383 0)  rotate(0 14.215686274509803 24.450980392156858)" d="" /><path id="直线 1"  fill="url(#linear_4)" transform="translate(0 0)  rotate(0 14.784313725490192 24.450980392156858)" opacity="1" d="M24.6908 -2.94942Q24.7632 -3.06916 24.8413 -3.18521Q24.9195 -3.30126 25.0033 -3.41333Q25.0871 -3.5254 25.1763 -3.63323Q25.2655 -3.74105 25.3599 -3.84437Q25.4543 -3.94769 25.5536 -4.04625Q25.6529 -4.14482 25.757 -4.23839Q25.861 -4.33196 25.9695 -4.42031Q26.078 -4.50867 26.1907 -4.59159Q26.3035 -4.67451 26.4201 -4.7518Q26.5368 -4.82909 26.6571 -4.90057Q26.7774 -4.97204 26.901 -5.03753Q27.0247 -5.10301 27.1514 -5.16235Q27.2782 -5.22169 27.4076 -5.27474Q27.5371 -5.32779 27.6691 -5.37442Q27.801 -5.42105 27.9351 -5.46116Q28.0691 -5.50126 28.205 -5.53473Q28.3409 -5.56821 28.4782 -5.59498Q28.6156 -5.62174 28.7541 -5.64174Q28.8926 -5.66174 29.0319 -5.67491Q29.1712 -5.68809 29.311 -5.69442Q29.4508 -5.70074 29.5907 -5.7002Q29.7306 -5.69966 29.8704 -5.69225Q30.0101 -5.68484 30.1493 -5.67059Q30.2885 -5.65633 30.4268 -5.63526Q30.5652 -5.6142 30.7023 -5.58637Q30.8395 -5.55854 30.9751 -5.52401Q31.1107 -5.48948 31.2444 -5.44834Q31.3782 -5.40721 31.5097 -5.35955Q31.6413 -5.3119 31.7704 -5.25785Q31.8995 -5.2038 32.0257 -5.14349Q32.152 -5.08317 32.2751 -5.01673Q32.3983 -4.95028 32.518 -4.87788Q32.6378 -4.80548 32.7538 -4.72729Q32.8699 -4.6491 32.9819 -4.56532Q33.094 -4.48153 33.2018 -4.39234Q33.3096 -4.30316 33.413 -4.20879Q33.5163 -4.11442 33.6148 -4.0151Q33.7134 -3.91578 33.807 -3.81174Q33.9005 -3.7077 33.9889 -3.59919Q34.0772 -3.49069 34.1601 -3.37798Q34.2431 -3.26527 34.3204 -3.14863Q34.3976 -3.03199 34.4691 -2.91169Q34.5406 -2.7914 34.6061 -2.66774Q34.6716 -2.54409 34.7309 -2.41737Q34.7902 -2.29065 34.8433 -2.16117Q34.8963 -2.03169 34.943 -1.89977Q34.9896 -1.76784 35.0297 -1.63379Q35.0698 -1.49973 35.1033 -1.36387Q35.1368 -1.22801 35.1636 -1.09067Q35.1903 -0.953328 35.2103 -0.814839Q35.2303 -0.676351 35.2435 -0.537048Q35.2567 -0.397745 35.263 -0.257963Q35.2694 -0.118181 35.2688 0.0217435Q35.2683 0.161668 35.2609 0.301398Q35.2535 0.441127 35.2393 0.580326Q35.225 0.719524 35.204 0.857856Q35.1829 0.996188 35.1551 1.13332Q35.1273 1.27045 35.0927 1.40605Q35.0582 1.54165 35.0171 1.6754Q34.976 1.80914 34.9283 1.94071Q34.8807 2.07228 34.8267 2.20135Q34.7726 2.33042 34.7123 2.45668Q34.652 2.58294 34.5856 2.7061Q34.5192 2.82925 34.4468 2.94899L34.4478 2.9496L4.87776 51.8496L-4.87776 45.9504L24.6918 -2.94881L24.6908 -2.94942ZM-2.94941 53.7798Q-2.82967 53.8522 -2.70651 53.9187Q-2.58336 53.9851 -2.4571 54.0454Q-2.33083 54.1058 -2.20176 54.1598Q-2.07268 54.2139 -1.94111 54.2615Q-1.80954 54.3092 -1.67579 54.3503Q-1.54205 54.3914 -1.40644 54.426Q-1.27083 54.4605 -1.13369 54.4883Q-0.996557 54.5161 -0.858219 54.5372Q-0.719881 54.5583 -0.580676 54.5725Q-0.44147 54.5868 -0.301734 54.5942Q-0.161997 54.6016 -0.0220647 54.6021Q0.117867 54.6027 0.257657 54.5964Q0.397447 54.59 0.536759 54.5769Q0.67607 54.5637 0.814567 54.5437Q0.953064 54.5237 1.09041 54.4969Q1.22776 54.4702 1.36363 54.4367Q1.4995 54.4032 1.63357 54.3631Q1.76763 54.323 1.89956 54.2764Q2.0315 54.2297 2.16099 54.1767Q2.29047 54.1236 2.4172 54.0643Q2.54393 54.005 2.6676 53.9395Q2.79126 53.874 2.91156 53.8025Q3.03186 53.731 3.14851 53.6538Q3.26516 53.5765 3.37788 53.4935Q3.4906 53.4106 3.59911 53.3223Q3.70762 53.2339 3.81167 53.1403Q3.91572 53.0468 4.01505 52.9482Q4.11438 52.8496 4.20875 52.7463Q4.30312 52.643 4.39232 52.5352Q4.48151 52.4274 4.5653 52.3153Q4.64909 52.2032 4.72728 52.0872Q4.80548 51.9711 4.87788 51.8514L-4.87788 45.9525Q-4.95028 46.0723 -5.01672 46.1954Q-5.08316 46.3186 -5.14348 46.4449Q-5.2038 46.5711 -5.25785 46.7002Q-5.3119 46.8293 -5.35955 46.9608Q-5.4072 47.0924 -5.44834 47.2262Q-5.48948 47.3599 -5.52401 47.4955Q-5.55853 47.6311 -5.58636 47.7683Q-5.61419 47.9054 -5.63526 48.0437Q-5.65633 48.1821 -5.67058 48.3213Q-5.68484 48.4605 -5.69225 48.6002Q-5.69965 48.74 -5.70019 48.8799Q-5.70074 49.0198 -5.69441 49.1596Q-5.68809 49.2994 -5.67491 49.4387Q-5.66173 49.578 -5.64174 49.7165Q-5.62174 49.855 -5.59497 49.9924Q-5.5682 50.1297 -5.53473 50.2656Q-5.50125 50.4015 -5.46115 50.5355Q-5.42105 50.6696 -5.37442 50.8015Q-5.32779 50.9335 -5.27474 51.0629Q-5.22169 51.1924 -5.16235 51.3192Q-5.10301 51.4459 -5.03753 51.5695Q-4.97204 51.6932 -4.90057 51.8135Q-4.82909 51.9338 -4.7518 52.0505Q-4.67451 52.1671 -4.59158 52.2798Q-4.50866 52.3925 -4.42031 52.5011Q-4.33196 52.6096 -4.23839 52.7136Q-4.14481 52.8177 -4.04625 52.917Q-3.94769 53.0163 -3.84437 53.1107Q-3.74105 53.2051 -3.63322 53.2943Q-3.5254 53.3835 -3.41333 53.4673Q-3.30125 53.551 -3.18521 53.6292Q-3.06916 53.7074 -2.94941 53.7798Z " /><path id="直线 1" style="stroke:url(#linear_5); stroke-width:11.400479999999998; stroke-opacity:100; stroke-dasharray:0 0" transform="translate(0 0)  rotate(0 14.784313725490192 24.450980392156858)" d="" /></g></g></g></svg>